<svg width="259" height="60" viewBox="0 0 259 60" fill="none" xmlns="http://www.w3.org/2000/svg">
<path d="M47.4775 5H22.525C19.7475 5 17.5 7.2475 17.5 10.025V24.1175L5.74501 35.7225C5.3928 36.0708 5.15202 36.516 5.05322 37.0014C4.95442 37.4868 5.00206 37.9907 5.19009 38.449C5.37813 38.9073 5.69808 39.2994 6.10934 39.5755C6.52061 39.8517 7.00464 39.9994 7.50001 40V52.5C7.50001 53.163 7.76341 53.7989 8.23225 54.2678C8.70109 54.7366 9.33697 55 10 55H50C50.6631 55 51.2989 54.7366 51.7678 54.2678C52.2366 53.7989 52.5 53.163 52.5 52.5V10.0225C52.5 7.2475 50.255 5 47.4775 5ZM27.305 37.7775V50H12.5V36.08L19.9675 28.7075L27.305 36.215V37.7775ZM32.5 22.5H27.5V17.5H32.5V22.5ZM42.5 42.5H37.5V37.5H42.5V42.5ZM42.5 32.5H37.5V27.5H42.5V32.5ZM42.5 22.5H37.5V17.5H42.5V22.5Z" fill="#6C63FF"/>
<path d="M17.5 37.5H22.5V42.5H17.5V37.5Z" fill="#6C63FF"/>
<path d="M65.04 25C64.9067 25 64.7933 24.9533 64.7 24.86C64.6067 24.7667 64.56 24.6533 64.56 24.52V11.5C64.56 11.3533 64.6067 11.2333 64.7 11.14C64.7933 11.0467 64.9067 11 65.04 11H70.84C71.92 11 72.8 11.1667 73.48 11.5C74.16 11.82 74.66 12.2667 74.98 12.84C75.3133 13.4133 75.48 14.08 75.48 14.84C75.48 15.3467 75.3867 15.7933 75.2 16.18C75.0267 16.5533 74.8067 16.86 74.54 17.1C74.2867 17.34 74.0333 17.5267 73.78 17.66C74.3 17.9 74.76 18.3 75.16 18.86C75.56 19.42 75.76 20.0867 75.76 20.86C75.76 21.66 75.58 22.3733 75.22 23C74.86 23.6267 74.3267 24.12 73.62 24.48C72.9133 24.8267 72.04 25 71 25H65.04ZM67.34 22.88H70.68C71.4 22.88 71.9467 22.6867 72.32 22.3C72.6933 21.9 72.88 21.42 72.88 20.86C72.88 20.2733 72.6867 19.7867 72.3 19.4C71.9267 19.0133 71.3867 18.82 70.68 18.82H67.34V22.88ZM67.34 16.74H70.48C71.1867 16.74 71.7133 16.5733 72.06 16.24C72.42 15.8933 72.6 15.4467 72.6 14.9C72.6 14.34 72.42 13.9067 72.06 13.6C71.7133 13.28 71.1867 13.12 70.48 13.12H67.34V16.74ZM77.2352 25C77.1285 25 77.0285 24.96 76.9352 24.88C76.8552 24.8 76.8152 24.7 76.8152 24.58C76.8152 24.5267 76.8285 24.4667 76.8552 24.4L81.6752 11.5C81.7152 11.3667 81.7885 11.2533 81.8952 11.16C82.0152 11.0533 82.1752 11 82.3752 11H84.5552C84.7552 11 84.9085 11.0533 85.0152 11.16C85.1218 11.2533 85.2018 11.3667 85.2552 11.5L90.0752 24.4C90.0885 24.4667 90.0952 24.5267 90.0952 24.58C90.0952 24.7 90.0552 24.8 89.9752 24.88C89.8952 24.96 89.8018 25 89.6952 25H87.9552C87.7685 25 87.6285 24.96 87.5352 24.88C87.4552 24.7867 87.4018 24.7 87.3752 24.62L86.4352 22.18H80.4952L79.5552 24.62C79.5285 24.7 79.4685 24.7867 79.3752 24.88C79.2952 24.96 79.1618 25 78.9752 25H77.2352ZM81.1952 19.88H85.7352L83.4552 13.7L81.1952 19.88ZM92.4423 25C92.309 25 92.1957 24.9533 92.1023 24.86C92.009 24.7667 91.9623 24.6533 91.9623 24.52V11.5C91.9623 11.3533 92.009 11.2333 92.1023 11.14C92.1957 11.0467 92.309 11 92.4423 11H93.9823C94.169 11 94.3023 11.0467 94.3823 11.14C94.4757 11.22 94.5357 11.28 94.5623 11.32L100.322 20.28V11.5C100.322 11.3533 100.362 11.2333 100.442 11.14C100.536 11.0467 100.656 11 100.802 11H102.482C102.629 11 102.749 11.0467 102.842 11.14C102.936 11.2333 102.982 11.3533 102.982 11.5V24.5C102.982 24.6467 102.936 24.7667 102.842 24.86C102.749 24.9533 102.636 25 102.502 25H100.942C100.756 25 100.622 24.9533 100.542 24.86C100.462 24.7667 100.402 24.7067 100.362 24.68L94.6223 15.92V24.52C94.6223 24.6533 94.5757 24.7667 94.4823 24.86C94.389 24.9533 94.269 25 94.1223 25H92.4423ZM111.503 25.2C110.263 25.2 109.21 24.9867 108.343 24.56C107.49 24.12 106.836 23.5 106.383 22.7C105.93 21.8867 105.676 20.9133 105.623 19.78C105.61 19.2333 105.603 18.6467 105.603 18.02C105.603 17.3933 105.61 16.7933 105.623 16.22C105.676 15.1 105.93 14.1333 106.383 13.32C106.85 12.5067 107.51 11.8867 108.363 11.46C109.23 11.02 110.276 10.8 111.503 10.8C112.41 10.8 113.223 10.92 113.943 11.16C114.663 11.4 115.276 11.7333 115.783 12.16C116.29 12.5733 116.683 13.06 116.963 13.62C117.243 14.18 117.39 14.7867 117.403 15.44C117.416 15.56 117.376 15.66 117.283 15.74C117.203 15.82 117.103 15.86 116.983 15.86H115.083C114.936 15.86 114.816 15.8267 114.723 15.76C114.63 15.68 114.563 15.5533 114.523 15.38C114.31 14.5 113.943 13.9 113.423 13.58C112.903 13.26 112.256 13.1 111.483 13.1C110.59 13.1 109.876 13.3533 109.343 13.86C108.81 14.3533 108.523 15.1733 108.483 16.32C108.443 17.4133 108.443 18.5333 108.483 19.68C108.523 20.8267 108.81 21.6533 109.343 22.16C109.876 22.6533 110.59 22.9 111.483 22.9C112.256 22.9 112.903 22.74 113.423 22.42C113.943 22.0867 114.31 21.4867 114.523 20.62C114.563 20.4333 114.63 20.3067 114.723 20.24C114.816 20.1733 114.936 20.14 115.083 20.14H116.983C117.103 20.14 117.203 20.18 117.283 20.26C117.376 20.34 117.416 20.44 117.403 20.56C117.39 21.2133 117.243 21.82 116.963 22.38C116.683 22.94 116.29 23.4333 115.783 23.86C115.276 24.2733 114.663 24.6 113.943 24.84C113.223 25.08 112.41 25.2 111.503 25.2ZM125.155 25.2C123.968 25.2 122.948 25.0067 122.095 24.62C121.242 24.22 120.575 23.6133 120.095 22.8C119.615 21.9733 119.355 20.9467 119.315 19.72C119.302 19.1467 119.295 18.58 119.295 18.02C119.295 17.46 119.302 16.8867 119.315 16.3C119.355 15.0867 119.622 14.0733 120.115 13.26C120.608 12.4467 121.282 11.8333 122.135 11.42C123.002 11.0067 124.008 10.8 125.155 10.8C126.302 10.8 127.308 11.0067 128.175 11.42C129.042 11.8333 129.722 12.4467 130.215 13.26C130.708 14.0733 130.975 15.0867 131.015 16.3C131.042 16.8867 131.055 17.46 131.055 18.02C131.055 18.58 131.042 19.1467 131.015 19.72C130.975 20.9467 130.715 21.9733 130.235 22.8C129.755 23.6133 129.082 24.22 128.215 24.62C127.362 25.0067 126.342 25.2 125.155 25.2ZM125.155 22.9C126.022 22.9 126.728 22.6467 127.275 22.14C127.822 21.62 128.115 20.78 128.155 19.62C128.182 19.0333 128.195 18.4933 128.195 18C128.195 17.4933 128.182 16.9533 128.155 16.38C128.128 15.6067 127.982 14.98 127.715 14.5C127.462 14.0067 127.115 13.6533 126.675 13.44C126.235 13.2133 125.728 13.1 125.155 13.1C124.595 13.1 124.095 13.2133 123.655 13.44C123.215 13.6533 122.862 14.0067 122.595 14.5C122.342 14.98 122.202 15.6067 122.175 16.38C122.162 16.9533 122.155 17.4933 122.155 18C122.155 18.4933 122.162 19.0333 122.175 19.62C122.215 20.78 122.508 21.62 123.055 22.14C123.602 22.6467 124.302 22.9 125.155 22.9ZM138.751 25C138.605 25 138.485 24.9533 138.391 24.86C138.298 24.7667 138.251 24.6533 138.251 24.52V11.5C138.251 11.3533 138.298 11.2333 138.391 11.14C138.485 11.0467 138.605 11 138.751 11H140.331C140.518 11 140.658 11.0533 140.751 11.16C140.845 11.2533 140.905 11.3267 140.931 11.38L144.791 18.58L148.691 11.38C148.718 11.3267 148.778 11.2533 148.871 11.16C148.965 11.0533 149.105 11 149.291 11H150.851C150.998 11 151.118 11.0467 151.211 11.14C151.305 11.2333 151.351 11.3533 151.351 11.5V24.52C151.351 24.6533 151.305 24.7667 151.211 24.86C151.118 24.9533 150.998 25 150.851 25H149.171C149.025 25 148.905 24.9533 148.811 24.86C148.731 24.7667 148.691 24.6533 148.691 24.52V15.86L145.891 21.2C145.825 21.32 145.738 21.4267 145.631 21.52C145.525 21.6 145.385 21.64 145.211 21.64H144.391C144.205 21.64 144.058 21.6 143.951 21.52C143.858 21.4267 143.778 21.32 143.711 21.2L140.911 15.86V24.52C140.911 24.6533 140.865 24.7667 140.771 24.86C140.678 24.9533 140.565 25 140.431 25H138.751ZM154.942 25C154.809 25 154.696 24.9533 154.602 24.86C154.509 24.7667 154.462 24.6533 154.462 24.52V11.48C154.462 11.3467 154.509 11.2333 154.602 11.14C154.696 11.0467 154.809 11 154.942 11H156.822C156.969 11 157.082 11.0467 157.162 11.14C157.256 11.2333 157.302 11.3467 157.302 11.48V24.52C157.302 24.6533 157.256 24.7667 157.162 24.86C157.082 24.9533 156.969 25 156.822 25H154.942ZM165.299 25.2C164.059 25.2 163.019 25.02 162.179 24.66C161.352 24.2867 160.719 23.8067 160.279 23.22C159.852 22.62 159.626 21.9933 159.599 21.34C159.599 21.22 159.639 21.12 159.719 21.04C159.799 20.96 159.899 20.92 160.019 20.92H161.799C161.972 20.92 162.099 20.96 162.179 21.04C162.272 21.1067 162.352 21.1933 162.419 21.3C162.499 21.5533 162.652 21.8067 162.879 22.06C163.106 22.3 163.412 22.5 163.799 22.66C164.199 22.82 164.699 22.9 165.299 22.9C166.259 22.9 166.972 22.74 167.439 22.42C167.919 22.1 168.159 21.6667 168.159 21.12C168.159 20.7333 168.032 20.4267 167.779 20.2C167.526 19.96 167.132 19.7467 166.599 19.56C166.079 19.36 165.386 19.1533 164.519 18.94C163.519 18.7 162.679 18.4133 161.999 18.08C161.332 17.7333 160.826 17.3 160.479 16.78C160.146 16.26 159.979 15.6 159.979 14.8C159.979 14.0267 160.186 13.34 160.599 12.74C161.026 12.14 161.626 11.6667 162.399 11.32C163.186 10.9733 164.119 10.8 165.199 10.8C166.066 10.8 166.832 10.92 167.499 11.16C168.166 11.3867 168.719 11.6933 169.159 12.08C169.599 12.4533 169.932 12.86 170.159 13.3C170.399 13.7267 170.526 14.1467 170.539 14.56C170.539 14.6667 170.499 14.7667 170.419 14.86C170.352 14.94 170.252 14.98 170.119 14.98H168.259C168.152 14.98 168.046 14.9533 167.939 14.9C167.832 14.8467 167.746 14.7467 167.679 14.6C167.599 14.1867 167.339 13.8333 166.899 13.54C166.459 13.2467 165.892 13.1 165.199 13.1C164.479 13.1 163.899 13.2333 163.459 13.5C163.019 13.7667 162.799 14.18 162.799 14.74C162.799 15.1133 162.906 15.4267 163.119 15.68C163.346 15.92 163.699 16.1333 164.179 16.32C164.672 16.5067 165.319 16.7067 166.119 16.92C167.252 17.1733 168.179 17.4667 168.899 17.8C169.619 18.1333 170.146 18.56 170.479 19.08C170.812 19.5867 170.979 20.2333 170.979 21.02C170.979 21.9 170.739 22.6533 170.259 23.28C169.792 23.8933 169.132 24.3667 168.279 24.7C167.426 25.0333 166.432 25.2 165.299 25.2ZM173.751 25C173.618 25 173.504 24.9533 173.411 24.86C173.318 24.7667 173.271 24.6533 173.271 24.52V11.48C173.271 11.3467 173.318 11.2333 173.411 11.14C173.504 11.0467 173.618 11 173.751 11H175.631C175.778 11 175.891 11.0467 175.971 11.14C176.064 11.2333 176.111 11.3467 176.111 11.48V24.52C176.111 24.6533 176.064 24.7667 175.971 24.86C175.891 24.9533 175.778 25 175.631 25H173.751ZM184.628 25.2C183.441 25.2 182.421 25.0067 181.568 24.62C180.714 24.22 180.048 23.6133 179.568 22.8C179.088 21.9733 178.828 20.9467 178.788 19.72C178.774 19.1467 178.768 18.58 178.768 18.02C178.768 17.46 178.774 16.8867 178.788 16.3C178.828 15.0867 179.094 14.0733 179.588 13.26C180.081 12.4467 180.754 11.8333 181.608 11.42C182.474 11.0067 183.481 10.8 184.628 10.8C185.774 10.8 186.781 11.0067 187.648 11.42C188.514 11.8333 189.194 12.4467 189.688 13.26C190.181 14.0733 190.448 15.0867 190.488 16.3C190.514 16.8867 190.528 17.46 190.528 18.02C190.528 18.58 190.514 19.1467 190.488 19.72C190.448 20.9467 190.188 21.9733 189.708 22.8C189.228 23.6133 188.554 24.22 187.688 24.62C186.834 25.0067 185.814 25.2 184.628 25.2ZM184.628 22.9C185.494 22.9 186.201 22.6467 186.748 22.14C187.294 21.62 187.588 20.78 187.628 19.62C187.654 19.0333 187.668 18.4933 187.668 18C187.668 17.4933 187.654 16.9533 187.628 16.38C187.601 15.6067 187.454 14.98 187.188 14.5C186.934 14.0067 186.588 13.6533 186.148 13.44C185.708 13.2133 185.201 13.1 184.628 13.1C184.068 13.1 183.568 13.2133 183.128 13.44C182.688 13.6533 182.334 14.0067 182.068 14.5C181.814 14.98 181.674 15.6067 181.648 16.38C181.634 16.9533 181.628 17.4933 181.628 18C181.628 18.4933 181.634 19.0333 181.648 19.62C181.688 20.78 181.981 21.62 182.528 22.14C183.074 22.6467 183.774 22.9 184.628 22.9ZM193.634 25C193.5 25 193.387 24.9533 193.294 24.86C193.2 24.7667 193.154 24.6533 193.154 24.52V11.5C193.154 11.3533 193.2 11.2333 193.294 11.14C193.387 11.0467 193.5 11 193.634 11H195.174C195.36 11 195.494 11.0467 195.574 11.14C195.667 11.22 195.727 11.28 195.754 11.32L201.514 20.28V11.5C201.514 11.3533 201.554 11.2333 201.634 11.14C201.727 11.0467 201.847 11 201.994 11H203.674C203.82 11 203.94 11.0467 204.034 11.14C204.127 11.2333 204.174 11.3533 204.174 11.5V24.5C204.174 24.6467 204.127 24.7667 204.034 24.86C203.94 24.9533 203.827 25 203.694 25H202.134C201.947 25 201.814 24.9533 201.734 24.86C201.654 24.7667 201.594 24.7067 201.554 24.68L195.814 15.92V24.52C195.814 24.6533 195.767 24.7667 195.674 24.86C195.58 24.9533 195.46 25 195.314 25H193.634ZM207.774 25C207.641 25 207.528 24.9533 207.434 24.86C207.341 24.7667 207.294 24.6533 207.294 24.52V11.5C207.294 11.3533 207.341 11.2333 207.434 11.14C207.528 11.0467 207.641 11 207.774 11H216.574C216.721 11 216.841 11.0467 216.934 11.14C217.028 11.2333 217.074 11.3533 217.074 11.5V12.82C217.074 12.9533 217.028 13.0667 216.934 13.16C216.841 13.2533 216.721 13.3 216.574 13.3H209.994V16.84H216.134C216.281 16.84 216.401 16.8867 216.494 16.98C216.588 17.06 216.634 17.1733 216.634 17.32V18.56C216.634 18.7067 216.588 18.8267 216.494 18.92C216.401 19 216.281 19.04 216.134 19.04H209.994V22.7H216.734C216.881 22.7 217.001 22.7467 217.094 22.84C217.188 22.9333 217.234 23.0533 217.234 23.2V24.52C217.234 24.6533 217.188 24.7667 217.094 24.86C217.001 24.9533 216.881 25 216.734 25H207.774ZM220.216 25C220.082 25 219.969 24.9533 219.876 24.86C219.782 24.7667 219.736 24.6533 219.736 24.52V11.5C219.736 11.3533 219.782 11.2333 219.876 11.14C219.969 11.0467 220.082 11 220.216 11H225.396C227.009 11 228.282 11.3733 229.216 12.12C230.149 12.8667 230.616 13.9533 230.616 15.38C230.616 16.3667 230.369 17.1867 229.876 17.84C229.396 18.4933 228.749 18.9667 227.936 19.26L230.856 24.36C230.896 24.44 230.916 24.5133 230.916 24.58C230.916 24.7 230.869 24.8 230.776 24.88C230.696 24.96 230.602 25 230.496 25H228.676C228.449 25 228.276 24.94 228.156 24.82C228.036 24.7 227.942 24.58 227.876 24.46L225.296 19.72H222.516V24.52C222.516 24.6533 222.469 24.7667 222.376 24.86C222.296 24.9533 222.182 25 222.036 25H220.216ZM222.516 17.46H225.336C226.149 17.46 226.756 17.28 227.156 16.92C227.556 16.5467 227.756 16.0267 227.756 15.36C227.756 14.6933 227.556 14.1733 227.156 13.8C226.769 13.4133 226.162 13.22 225.336 13.22H222.516V17.46ZM238.534 25.2C237.347 25.2 236.327 25.0067 235.474 24.62C234.62 24.22 233.954 23.6133 233.474 22.8C232.994 21.9733 232.734 20.9467 232.694 19.72C232.68 19.1467 232.674 18.58 232.674 18.02C232.674 17.46 232.68 16.8867 232.694 16.3C232.734 15.0867 233 14.0733 233.494 13.26C233.987 12.4467 234.66 11.8333 235.514 11.42C236.38 11.0067 237.387 10.8 238.534 10.8C239.68 10.8 240.687 11.0067 241.554 11.42C242.42 11.8333 243.1 12.4467 243.594 13.26C244.087 14.0733 244.354 15.0867 244.394 16.3C244.42 16.8867 244.434 17.46 244.434 18.02C244.434 18.58 244.42 19.1467 244.394 19.72C244.354 20.9467 244.094 21.9733 243.614 22.8C243.134 23.6133 242.46 24.22 241.594 24.62C240.74 25.0067 239.72 25.2 238.534 25.2ZM238.534 22.9C239.4 22.9 240.107 22.6467 240.654 22.14C241.2 21.62 241.494 20.78 241.534 19.62C241.56 19.0333 241.574 18.4933 241.574 18C241.574 17.4933 241.56 16.9533 241.534 16.38C241.507 15.6067 241.36 14.98 241.094 14.5C240.84 14.0067 240.494 13.6533 240.054 13.44C239.614 13.2133 239.107 13.1 238.534 13.1C237.974 13.1 237.474 13.2133 237.034 13.44C236.594 13.6533 236.24 14.0067 235.974 14.5C235.72 14.98 235.58 15.6067 235.554 16.38C235.54 16.9533 235.534 17.4933 235.534 18C235.534 18.4933 235.54 19.0333 235.554 19.62C235.594 20.78 235.887 21.62 236.434 22.14C236.98 22.6467 237.68 22.9 238.534 22.9ZM251.92 25.2C250.68 25.2 249.64 25.02 248.8 24.66C247.973 24.2867 247.34 23.8067 246.9 23.22C246.473 22.62 246.247 21.9933 246.22 21.34C246.22 21.22 246.26 21.12 246.34 21.04C246.42 20.96 246.52 20.92 246.64 20.92H248.42C248.593 20.92 248.72 20.96 248.8 21.04C248.893 21.1067 248.973 21.1933 249.04 21.3C249.12 21.5533 249.273 21.8067 249.5 22.06C249.727 22.3 250.033 22.5 250.42 22.66C250.82 22.82 251.32 22.9 251.92 22.9C252.88 22.9 253.593 22.74 254.06 22.42C254.54 22.1 254.78 21.6667 254.78 21.12C254.78 20.7333 254.653 20.4267 254.4 20.2C254.147 19.96 253.753 19.7467 253.22 19.56C252.7 19.36 252.007 19.1533 251.14 18.94C250.14 18.7 249.3 18.4133 248.62 18.08C247.953 17.7333 247.447 17.3 247.1 16.78C246.767 16.26 246.6 15.6 246.6 14.8C246.6 14.0267 246.807 13.34 247.22 12.74C247.647 12.14 248.247 11.6667 249.02 11.32C249.807 10.9733 250.74 10.8 251.82 10.8C252.687 10.8 253.453 10.92 254.12 11.16C254.787 11.3867 255.34 11.6933 255.78 12.08C256.22 12.4533 256.553 12.86 256.78 13.3C257.02 13.7267 257.147 14.1467 257.16 14.56C257.16 14.6667 257.12 14.7667 257.04 14.86C256.973 14.94 256.873 14.98 256.74 14.98H254.88C254.773 14.98 254.667 14.9533 254.56 14.9C254.453 14.8467 254.367 14.7467 254.3 14.6C254.22 14.1867 253.96 13.8333 253.52 13.54C253.08 13.2467 252.513 13.1 251.82 13.1C251.1 13.1 250.52 13.2333 250.08 13.5C249.64 13.7667 249.42 14.18 249.42 14.74C249.42 15.1133 249.527 15.4267 249.74 15.68C249.967 15.92 250.32 16.1333 250.8 16.32C251.293 16.5067 251.94 16.7067 252.74 16.92C253.873 17.1733 254.8 17.4667 255.52 17.8C256.24 18.1333 256.767 18.56 257.1 19.08C257.433 19.5867 257.6 20.2333 257.6 21.02C257.6 21.9 257.36 22.6533 256.88 23.28C256.413 23.8933 255.753 24.3667 254.9 24.7C254.047 25.0333 253.053 25.2 251.92 25.2Z" fill="#6C63FF"/>
<path d="M66.072 47C65.992 47 65.924 46.972 65.868 46.916C65.812 46.86 65.784 46.792 65.784 46.712V40.076H63.564C63.484 40.076 63.416 40.048 63.36 39.992C63.304 39.936 63.276 39.868 63.276 39.788V38.9C63.276 38.812 63.304 38.74 63.36 38.684C63.416 38.628 63.484 38.6 63.564 38.6H69.684C69.772 38.6 69.844 38.628 69.9 38.684C69.956 38.74 69.984 38.812 69.984 38.9V39.788C69.984 39.868 69.956 39.936 69.9 39.992C69.844 40.048 69.772 40.076 69.684 40.076H67.476V46.712C67.476 46.792 67.448 46.86 67.392 46.916C67.336 46.972 67.264 47 67.176 47H66.072ZM72.6119 47.12C72.1239 47.12 71.6999 47.012 71.3399 46.796C70.9879 46.572 70.7159 46.26 70.5239 45.86C70.3319 45.452 70.2359 44.972 70.2359 44.42V41.048C70.2359 40.968 70.2639 40.9 70.3199 40.844C70.3759 40.788 70.4439 40.76 70.5239 40.76H71.5799C71.6679 40.76 71.7359 40.788 71.7839 40.844C71.8399 40.9 71.8679 40.968 71.8679 41.048V44.348C71.8679 45.34 72.3039 45.836 73.1759 45.836C73.5919 45.836 73.9199 45.704 74.1599 45.44C74.4079 45.176 74.5319 44.812 74.5319 44.348V41.048C74.5319 40.968 74.5599 40.9 74.6159 40.844C74.6719 40.788 74.7399 40.76 74.8199 40.76H75.8759C75.9559 40.76 76.0239 40.788 76.0799 40.844C76.1359 40.9 76.1639 40.968 76.1639 41.048V46.712C76.1639 46.792 76.1359 46.86 76.0799 46.916C76.0239 46.972 75.9559 47 75.8759 47H74.9039C74.8159 47 74.7439 46.972 74.6879 46.916C74.6399 46.86 74.6159 46.792 74.6159 46.712V46.22C74.3999 46.5 74.1319 46.72 73.8119 46.88C73.4919 47.04 73.0919 47.12 72.6119 47.12ZM82.3032 47.12C81.8872 47.12 81.5112 47.04 81.1752 46.88C80.8392 46.712 80.5712 46.492 80.3712 46.22C80.1792 45.94 80.0832 45.628 80.0832 45.284C80.0832 44.724 80.3072 44.28 80.7552 43.952C81.2112 43.616 81.8112 43.392 82.5552 43.28L84.1992 43.04V42.788C84.1992 42.452 84.1152 42.192 83.9472 42.008C83.7792 41.824 83.4912 41.732 83.0832 41.732C82.7952 41.732 82.5592 41.792 82.3752 41.912C82.1992 42.024 82.0672 42.176 81.9792 42.368C81.9152 42.472 81.8232 42.524 81.7032 42.524H80.7552C80.6672 42.524 80.5992 42.5 80.5512 42.452C80.5112 42.404 80.4912 42.34 80.4912 42.26C80.4992 42.132 80.5512 41.976 80.6472 41.792C80.7432 41.608 80.8952 41.432 81.1032 41.264C81.3112 41.088 81.5792 40.94 81.9072 40.82C82.2352 40.7 82.6312 40.64 83.0952 40.64C83.5992 40.64 84.0232 40.704 84.3672 40.832C84.7192 40.952 84.9992 41.116 85.2072 41.324C85.4152 41.532 85.5672 41.776 85.6632 42.056C85.7592 42.336 85.8072 42.632 85.8072 42.944V46.712C85.8072 46.792 85.7792 46.86 85.7232 46.916C85.6672 46.972 85.5992 47 85.5192 47H84.5472C84.4592 47 84.3872 46.972 84.3312 46.916C84.2832 46.86 84.2592 46.792 84.2592 46.712V46.244C84.1552 46.396 84.0152 46.54 83.8392 46.676C83.6632 46.804 83.4472 46.912 83.1912 47C82.9432 47.08 82.6472 47.12 82.3032 47.12ZM82.7112 45.98C82.9912 45.98 83.2432 45.92 83.4672 45.8C83.6992 45.68 83.8792 45.496 84.0072 45.248C84.1432 44.992 84.2112 44.672 84.2112 44.288V44.036L83.0112 44.228C82.5392 44.3 82.1872 44.416 81.9552 44.576C81.7232 44.736 81.6072 44.932 81.6072 45.164C81.6072 45.34 81.6592 45.492 81.7632 45.62C81.8752 45.74 82.0152 45.832 82.1832 45.896C82.3512 45.952 82.5272 45.98 82.7112 45.98ZM90.1667 49.64C89.5827 49.64 89.1027 49.564 88.7267 49.412C88.3507 49.26 88.0547 49.076 87.8387 48.86C87.6227 48.644 87.4667 48.428 87.3707 48.212C87.2827 48.004 87.2347 47.84 87.2267 47.72C87.2187 47.64 87.2427 47.568 87.2987 47.504C87.3627 47.448 87.4347 47.42 87.5147 47.42H88.5587C88.6387 47.42 88.7027 47.436 88.7507 47.468C88.7987 47.508 88.8387 47.576 88.8707 47.672C88.9187 47.776 88.9827 47.888 89.0627 48.008C89.1427 48.128 89.2627 48.228 89.4227 48.308C89.5907 48.396 89.8187 48.44 90.1067 48.44C90.4107 48.44 90.6667 48.396 90.8747 48.308C91.0827 48.22 91.2387 48.072 91.3427 47.864C91.4547 47.656 91.5107 47.368 91.5107 47V46.184C91.3187 46.416 91.0707 46.604 90.7667 46.748C90.4707 46.892 90.1027 46.964 89.6627 46.964C89.2307 46.964 88.8587 46.896 88.5467 46.76C88.2347 46.616 87.9747 46.42 87.7667 46.172C87.5587 45.916 87.3987 45.616 87.2867 45.272C87.1827 44.928 87.1227 44.548 87.1067 44.132C87.0987 43.916 87.0987 43.7 87.1067 43.484C87.1227 43.084 87.1827 42.712 87.2867 42.368C87.3907 42.024 87.5467 41.724 87.7547 41.468C87.9707 41.204 88.2347 41 88.5467 40.856C88.8587 40.712 89.2307 40.64 89.6627 40.64C90.1187 40.64 90.5027 40.728 90.8147 40.904C91.1267 41.072 91.3827 41.284 91.5827 41.54V41.06C91.5827 40.972 91.6107 40.9 91.6667 40.844C91.7227 40.788 91.7907 40.76 91.8707 40.76H92.8427C92.9227 40.76 92.9907 40.788 93.0467 40.844C93.1027 40.9 93.1307 40.972 93.1307 41.06L93.1427 46.844C93.1427 47.42 93.0347 47.916 92.8187 48.332C92.6027 48.748 92.2747 49.068 91.8347 49.292C91.4027 49.524 90.8467 49.64 90.1667 49.64ZM90.1067 45.692C90.4347 45.692 90.6987 45.62 90.8987 45.476C91.0987 45.332 91.2467 45.144 91.3427 44.912C91.4387 44.68 91.4947 44.444 91.5107 44.204C91.5187 44.1 91.5227 43.968 91.5227 43.808C91.5227 43.648 91.5187 43.52 91.5107 43.424C91.4947 43.176 91.4387 42.94 91.3427 42.716C91.2467 42.484 91.0987 42.296 90.8987 42.152C90.6987 42 90.4347 41.924 90.1067 41.924C89.7787 41.924 89.5147 42 89.3147 42.152C89.1147 42.296 88.9707 42.488 88.8827 42.728C88.8027 42.968 88.7547 43.232 88.7387 43.52C88.7227 43.712 88.7227 43.908 88.7387 44.108C88.7547 44.388 88.8027 44.652 88.8827 44.9C88.9707 45.14 89.1147 45.332 89.3147 45.476C89.5147 45.62 89.7787 45.692 90.1067 45.692ZM97.4292 47.12C96.5412 47.12 95.8372 46.864 95.3172 46.352C94.7972 45.84 94.5172 45.112 94.4772 44.168C94.4692 44.088 94.4652 43.988 94.4652 43.868C94.4652 43.74 94.4692 43.64 94.4772 43.568C94.5092 42.968 94.6452 42.448 94.8852 42.008C95.1332 41.568 95.4732 41.232 95.9052 41C96.3372 40.76 96.8452 40.64 97.4292 40.64C98.0772 40.64 98.6212 40.776 99.0612 41.048C99.5012 41.312 99.8332 41.684 100.057 42.164C100.281 42.636 100.393 43.184 100.393 43.808V44.06C100.393 44.14 100.365 44.208 100.309 44.264C100.253 44.32 100.181 44.348 100.093 44.348H96.1092C96.1092 44.348 96.1092 44.36 96.1092 44.384C96.1092 44.408 96.1092 44.428 96.1092 44.444C96.1172 44.724 96.1692 44.984 96.2652 45.224C96.3692 45.456 96.5172 45.644 96.7092 45.788C96.9092 45.932 97.1452 46.004 97.4172 46.004C97.6412 46.004 97.8292 45.972 97.9812 45.908C98.1332 45.836 98.2572 45.756 98.3532 45.668C98.4492 45.58 98.5172 45.508 98.5572 45.452C98.6292 45.356 98.6852 45.3 98.7252 45.284C98.7732 45.26 98.8412 45.248 98.9292 45.248H99.9612C100.041 45.248 100.105 45.272 100.153 45.32C100.209 45.368 100.233 45.428 100.225 45.5C100.217 45.628 100.149 45.784 100.021 45.968C99.9012 46.152 99.7252 46.332 99.4932 46.508C99.2612 46.684 98.9692 46.832 98.6172 46.952C98.2732 47.064 97.8772 47.12 97.4292 47.12ZM96.1092 43.34H98.7612V43.304C98.7612 42.992 98.7092 42.72 98.6052 42.488C98.5012 42.256 98.3492 42.072 98.1492 41.936C97.9492 41.8 97.7092 41.732 97.4292 41.732C97.1492 41.732 96.9092 41.8 96.7092 41.936C96.5092 42.072 96.3572 42.256 96.2532 42.488C96.1572 42.72 96.1092 42.992 96.1092 43.304V43.34ZM101.955 47C101.875 47 101.807 46.972 101.751 46.916C101.695 46.86 101.667 46.792 101.667 46.712V41.048C101.667 40.968 101.695 40.9 101.751 40.844C101.807 40.788 101.875 40.76 101.955 40.76H102.939C103.019 40.76 103.087 40.788 103.143 40.844C103.199 40.9 103.227 40.968 103.227 41.048V41.54C103.435 41.284 103.699 41.072 104.019 40.904C104.347 40.728 104.751 40.64 105.231 40.64C105.719 40.64 106.143 40.752 106.503 40.976C106.863 41.192 107.139 41.5 107.331 41.9C107.531 42.3 107.631 42.78 107.631 43.34V46.712C107.631 46.792 107.603 46.86 107.547 46.916C107.491 46.972 107.423 47 107.343 47H106.287C106.207 47 106.139 46.972 106.083 46.916C106.027 46.86 105.999 46.792 105.999 46.712V43.412C105.999 42.948 105.883 42.584 105.651 42.32C105.427 42.056 105.099 41.924 104.667 41.924C104.251 41.924 103.919 42.056 103.671 42.32C103.423 42.584 103.299 42.948 103.299 43.412V46.712C103.299 46.792 103.271 46.86 103.215 46.916C103.159 46.972 103.091 47 103.011 47H101.955ZM111.905 47C111.425 47 111.021 46.916 110.693 46.748C110.365 46.58 110.121 46.332 109.961 46.004C109.801 45.668 109.721 45.252 109.721 44.756V42.032H108.773C108.693 42.032 108.625 42.004 108.569 41.948C108.513 41.892 108.485 41.824 108.485 41.744V41.048C108.485 40.968 108.513 40.9 108.569 40.844C108.625 40.788 108.693 40.76 108.773 40.76H109.721V38.768C109.721 38.688 109.745 38.62 109.793 38.564C109.849 38.508 109.921 38.48 110.009 38.48H110.981C111.061 38.48 111.129 38.508 111.185 38.564C111.241 38.62 111.269 38.688 111.269 38.768V40.76H112.769C112.849 40.76 112.917 40.788 112.973 40.844C113.029 40.9 113.057 40.968 113.057 41.048V41.744C113.057 41.824 113.029 41.892 112.973 41.948C112.917 42.004 112.849 42.032 112.769 42.032H111.269V44.636C111.269 44.964 111.325 45.22 111.437 45.404C111.557 45.588 111.761 45.68 112.049 45.68H112.877C112.957 45.68 113.025 45.708 113.081 45.764C113.137 45.82 113.165 45.888 113.165 45.968V46.712C113.165 46.792 113.137 46.86 113.081 46.916C113.025 46.972 112.957 47 112.877 47H111.905ZM116.918 47.12C116.03 47.12 115.326 46.864 114.806 46.352C114.286 45.84 114.006 45.112 113.966 44.168C113.958 44.088 113.954 43.988 113.954 43.868C113.954 43.74 113.958 43.64 113.966 43.568C113.998 42.968 114.134 42.448 114.374 42.008C114.622 41.568 114.962 41.232 115.394 41C115.826 40.76 116.334 40.64 116.918 40.64C117.566 40.64 118.11 40.776 118.55 41.048C118.99 41.312 119.322 41.684 119.546 42.164C119.77 42.636 119.882 43.184 119.882 43.808V44.06C119.882 44.14 119.854 44.208 119.798 44.264C119.742 44.32 119.67 44.348 119.582 44.348H115.598C115.598 44.348 115.598 44.36 115.598 44.384C115.598 44.408 115.598 44.428 115.598 44.444C115.606 44.724 115.658 44.984 115.754 45.224C115.858 45.456 116.006 45.644 116.198 45.788C116.398 45.932 116.634 46.004 116.906 46.004C117.13 46.004 117.318 45.972 117.47 45.908C117.622 45.836 117.746 45.756 117.842 45.668C117.938 45.58 118.006 45.508 118.046 45.452C118.118 45.356 118.174 45.3 118.214 45.284C118.262 45.26 118.33 45.248 118.418 45.248H119.45C119.53 45.248 119.594 45.272 119.642 45.32C119.698 45.368 119.722 45.428 119.714 45.5C119.706 45.628 119.638 45.784 119.51 45.968C119.39 46.152 119.214 46.332 118.982 46.508C118.75 46.684 118.458 46.832 118.106 46.952C117.762 47.064 117.366 47.12 116.918 47.12ZM115.598 43.34H118.25V43.304C118.25 42.992 118.198 42.72 118.094 42.488C117.99 42.256 117.838 42.072 117.638 41.936C117.438 41.8 117.198 41.732 116.918 41.732C116.638 41.732 116.398 41.8 116.198 41.936C115.998 42.072 115.846 42.256 115.742 42.488C115.646 42.72 115.598 42.992 115.598 43.304V43.34ZM126.213 47.12C125.797 47.12 125.429 47.052 125.109 46.916C124.797 46.772 124.537 46.572 124.329 46.316C124.121 46.06 123.961 45.76 123.849 45.416C123.737 45.064 123.673 44.68 123.657 44.264C123.649 44.12 123.645 43.992 123.645 43.88C123.645 43.76 123.649 43.628 123.657 43.484C123.673 43.084 123.733 42.712 123.837 42.368C123.949 42.024 124.109 41.724 124.317 41.468C124.533 41.204 124.797 41 125.109 40.856C125.429 40.712 125.797 40.64 126.213 40.64C126.645 40.64 127.009 40.716 127.305 40.868C127.609 41.012 127.861 41.2 128.061 41.432V38.768C128.061 38.688 128.085 38.62 128.133 38.564C128.189 38.508 128.261 38.48 128.349 38.48H129.369C129.449 38.48 129.517 38.508 129.573 38.564C129.629 38.62 129.657 38.688 129.657 38.768V46.712C129.657 46.792 129.629 46.86 129.573 46.916C129.517 46.972 129.449 47 129.369 47H128.421C128.333 47 128.261 46.972 128.205 46.916C128.157 46.86 128.133 46.792 128.133 46.712V46.268C127.933 46.516 127.677 46.72 127.365 46.88C127.061 47.04 126.677 47.12 126.213 47.12ZM126.657 45.836C126.993 45.836 127.261 45.76 127.461 45.608C127.661 45.456 127.809 45.264 127.905 45.032C128.001 44.792 128.053 44.548 128.061 44.3C128.069 44.156 128.073 44.004 128.073 43.844C128.073 43.676 128.069 43.52 128.061 43.376C128.053 43.136 127.997 42.908 127.893 42.692C127.789 42.468 127.637 42.284 127.437 42.14C127.237 41.996 126.977 41.924 126.657 41.924C126.321 41.924 126.053 42 125.853 42.152C125.661 42.296 125.521 42.488 125.433 42.728C125.345 42.968 125.293 43.232 125.277 43.52C125.269 43.76 125.269 44 125.277 44.24C125.293 44.528 125.345 44.792 125.433 45.032C125.521 45.272 125.661 45.468 125.853 45.62C126.053 45.764 126.321 45.836 126.657 45.836ZM133.945 47.12C133.057 47.12 132.353 46.864 131.833 46.352C131.313 45.84 131.033 45.112 130.993 44.168C130.985 44.088 130.981 43.988 130.981 43.868C130.981 43.74 130.985 43.64 130.993 43.568C131.025 42.968 131.161 42.448 131.401 42.008C131.649 41.568 131.989 41.232 132.421 41C132.853 40.76 133.361 40.64 133.945 40.64C134.593 40.64 135.137 40.776 135.577 41.048C136.017 41.312 136.349 41.684 136.573 42.164C136.797 42.636 136.909 43.184 136.909 43.808V44.06C136.909 44.14 136.881 44.208 136.825 44.264C136.769 44.32 136.697 44.348 136.609 44.348H132.625C132.625 44.348 132.625 44.36 132.625 44.384C132.625 44.408 132.625 44.428 132.625 44.444C132.633 44.724 132.685 44.984 132.781 45.224C132.885 45.456 133.033 45.644 133.225 45.788C133.425 45.932 133.661 46.004 133.933 46.004C134.157 46.004 134.345 45.972 134.497 45.908C134.649 45.836 134.773 45.756 134.869 45.668C134.965 45.58 135.033 45.508 135.073 45.452C135.145 45.356 135.201 45.3 135.241 45.284C135.289 45.26 135.357 45.248 135.445 45.248H136.477C136.557 45.248 136.621 45.272 136.669 45.32C136.725 45.368 136.749 45.428 136.741 45.5C136.733 45.628 136.665 45.784 136.537 45.968C136.417 46.152 136.241 46.332 136.009 46.508C135.777 46.684 135.485 46.832 135.133 46.952C134.789 47.064 134.393 47.12 133.945 47.12ZM132.625 43.34H135.277V43.304C135.277 42.992 135.225 42.72 135.121 42.488C135.017 42.256 134.865 42.072 134.665 41.936C134.465 41.8 134.225 41.732 133.945 41.732C133.665 41.732 133.425 41.8 133.225 41.936C133.025 42.072 132.873 42.256 132.769 42.488C132.673 42.72 132.625 42.992 132.625 43.304V43.34ZM143.625 47.12C143.049 47.12 142.541 47.012 142.101 46.796C141.669 46.58 141.329 46.268 141.081 45.86C140.841 45.444 140.709 44.944 140.685 44.36C140.677 44.24 140.673 44.084 140.673 43.892C140.673 43.692 140.677 43.528 140.685 43.4C140.709 42.816 140.841 42.32 141.081 41.912C141.329 41.496 141.669 41.18 142.101 40.964C142.541 40.748 143.049 40.64 143.625 40.64C144.137 40.64 144.573 40.712 144.933 40.856C145.293 41 145.589 41.18 145.821 41.396C146.053 41.612 146.225 41.84 146.337 42.08C146.457 42.312 146.521 42.524 146.529 42.716C146.537 42.804 146.509 42.876 146.445 42.932C146.389 42.98 146.321 43.004 146.241 43.004H145.185C145.105 43.004 145.041 42.984 144.993 42.944C144.953 42.904 144.913 42.844 144.873 42.764C144.753 42.444 144.593 42.22 144.393 42.092C144.201 41.956 143.953 41.888 143.649 41.888C143.249 41.888 142.929 42.016 142.689 42.272C142.457 42.52 142.333 42.916 142.317 43.46C142.301 43.764 142.301 44.044 142.317 44.3C142.333 44.852 142.457 45.252 142.689 45.5C142.929 45.748 143.249 45.872 143.649 45.872C143.961 45.872 144.213 45.808 144.405 45.68C144.597 45.544 144.753 45.316 144.873 44.996C144.913 44.916 144.953 44.856 144.993 44.816C145.041 44.776 145.105 44.756 145.185 44.756H146.241C146.321 44.756 146.389 44.784 146.445 44.84C146.509 44.888 146.537 44.956 146.529 45.044C146.521 45.188 146.481 45.352 146.409 45.536C146.345 45.712 146.237 45.896 146.085 46.088C145.941 46.272 145.757 46.444 145.533 46.604C145.309 46.756 145.037 46.88 144.717 46.976C144.405 47.072 144.041 47.12 143.625 47.12ZM150.54 47.12C149.9 47.12 149.36 47.008 148.92 46.784C148.488 46.56 148.156 46.244 147.924 45.836C147.7 45.428 147.572 44.952 147.54 44.408C147.532 44.264 147.528 44.088 147.528 43.88C147.528 43.672 147.532 43.496 147.54 43.352C147.572 42.8 147.704 42.324 147.936 41.924C148.176 41.516 148.512 41.2 148.944 40.976C149.384 40.752 149.916 40.64 150.54 40.64C151.164 40.64 151.692 40.752 152.124 40.976C152.564 41.2 152.9 41.516 153.132 41.924C153.372 42.324 153.508 42.8 153.54 43.352C153.548 43.496 153.552 43.672 153.552 43.88C153.552 44.088 153.548 44.264 153.54 44.408C153.508 44.952 153.376 45.428 153.144 45.836C152.92 46.244 152.588 46.56 152.148 46.784C151.716 47.008 151.18 47.12 150.54 47.12ZM150.54 45.932C150.964 45.932 151.292 45.8 151.524 45.536C151.756 45.264 151.884 44.868 151.908 44.348C151.916 44.228 151.92 44.072 151.92 43.88C151.92 43.688 151.916 43.532 151.908 43.412C151.884 42.9 151.756 42.508 151.524 42.236C151.292 41.964 150.964 41.828 150.54 41.828C150.116 41.828 149.788 41.964 149.556 42.236C149.324 42.508 149.196 42.9 149.172 43.412C149.164 43.532 149.16 43.688 149.16 43.88C149.16 44.072 149.164 44.228 149.172 44.348C149.196 44.868 149.324 45.264 149.556 45.536C149.788 45.8 150.116 45.932 150.54 45.932ZM155.17 47C155.09 47 155.022 46.972 154.966 46.916C154.91 46.86 154.882 46.792 154.882 46.712V41.048C154.882 40.968 154.91 40.9 154.966 40.844C155.022 40.788 155.09 40.76 155.17 40.76H156.154C156.234 40.76 156.302 40.788 156.358 40.844C156.414 40.9 156.442 40.968 156.442 41.048V41.54C156.65 41.284 156.914 41.072 157.234 40.904C157.562 40.728 157.966 40.64 158.446 40.64C158.934 40.64 159.358 40.752 159.718 40.976C160.078 41.192 160.354 41.5 160.546 41.9C160.746 42.3 160.846 42.78 160.846 43.34V46.712C160.846 46.792 160.818 46.86 160.762 46.916C160.706 46.972 160.638 47 160.558 47H159.502C159.422 47 159.354 46.972 159.298 46.916C159.242 46.86 159.214 46.792 159.214 46.712V43.412C159.214 42.948 159.098 42.584 158.866 42.32C158.642 42.056 158.314 41.924 157.882 41.924C157.466 41.924 157.134 42.056 156.886 42.32C156.638 42.584 156.514 42.948 156.514 43.412V46.712C156.514 46.792 156.486 46.86 156.43 46.916C156.374 46.972 156.306 47 156.226 47H155.17ZM163.248 47C163.168 47 163.1 46.972 163.044 46.916C162.988 46.86 162.96 46.792 162.96 46.712V42.032H161.988C161.908 42.032 161.84 42.004 161.784 41.948C161.728 41.892 161.7 41.824 161.7 41.744V41.048C161.7 40.968 161.728 40.9 161.784 40.844C161.84 40.788 161.908 40.76 161.988 40.76H162.96V40.268C162.96 39.788 163.048 39.392 163.224 39.08C163.4 38.76 163.66 38.52 164.004 38.36C164.348 38.2 164.784 38.12 165.312 38.12H167.76C167.848 38.12 167.916 38.148 167.964 38.204C168.02 38.26 168.048 38.328 168.048 38.408V39.104C168.048 39.184 168.02 39.252 167.964 39.308C167.916 39.364 167.848 39.392 167.76 39.392H165.36C165.04 39.392 164.82 39.472 164.7 39.632C164.58 39.792 164.52 40.024 164.52 40.328V40.76H167.76C167.848 40.76 167.916 40.788 167.964 40.844C168.02 40.9 168.048 40.968 168.048 41.048V46.712C168.048 46.792 168.02 46.86 167.964 46.916C167.916 46.972 167.848 47 167.76 47H166.788C166.708 47 166.64 46.972 166.584 46.916C166.528 46.86 166.5 46.792 166.5 46.712V42.032H164.52V46.712C164.52 46.792 164.492 46.86 164.436 46.916C164.38 46.972 164.312 47 164.232 47H163.248ZM171.459 47.12C171.043 47.12 170.667 47.04 170.331 46.88C169.995 46.712 169.727 46.492 169.527 46.22C169.335 45.94 169.239 45.628 169.239 45.284C169.239 44.724 169.463 44.28 169.911 43.952C170.367 43.616 170.967 43.392 171.711 43.28L173.355 43.04V42.788C173.355 42.452 173.271 42.192 173.103 42.008C172.935 41.824 172.647 41.732 172.239 41.732C171.951 41.732 171.715 41.792 171.531 41.912C171.355 42.024 171.223 42.176 171.135 42.368C171.071 42.472 170.979 42.524 170.859 42.524H169.911C169.823 42.524 169.755 42.5 169.707 42.452C169.667 42.404 169.647 42.34 169.647 42.26C169.655 42.132 169.707 41.976 169.803 41.792C169.899 41.608 170.051 41.432 170.259 41.264C170.467 41.088 170.735 40.94 171.063 40.82C171.391 40.7 171.787 40.64 172.251 40.64C172.755 40.64 173.179 40.704 173.523 40.832C173.875 40.952 174.155 41.116 174.363 41.324C174.571 41.532 174.723 41.776 174.819 42.056C174.915 42.336 174.963 42.632 174.963 42.944V46.712C174.963 46.792 174.935 46.86 174.879 46.916C174.823 46.972 174.755 47 174.675 47H173.703C173.615 47 173.543 46.972 173.487 46.916C173.439 46.86 173.415 46.792 173.415 46.712V46.244C173.311 46.396 173.171 46.54 172.995 46.676C172.819 46.804 172.603 46.912 172.347 47C172.099 47.08 171.803 47.12 171.459 47.12ZM171.867 45.98C172.147 45.98 172.399 45.92 172.623 45.8C172.855 45.68 173.035 45.496 173.163 45.248C173.299 44.992 173.367 44.672 173.367 44.288V44.036L172.167 44.228C171.695 44.3 171.343 44.416 171.111 44.576C170.879 44.736 170.763 44.932 170.763 45.164C170.763 45.34 170.815 45.492 170.919 45.62C171.031 45.74 171.171 45.832 171.339 45.896C171.507 45.952 171.683 45.98 171.867 45.98ZM176.791 47C176.711 47 176.643 46.972 176.587 46.916C176.531 46.86 176.503 46.792 176.503 46.712V41.048C176.503 40.968 176.531 40.9 176.587 40.844C176.643 40.788 176.711 40.76 176.791 40.76H177.775C177.855 40.76 177.923 40.788 177.979 40.844C178.035 40.9 178.063 40.968 178.063 41.048V41.54C178.271 41.284 178.535 41.072 178.855 40.904C179.183 40.728 179.587 40.64 180.067 40.64C180.555 40.64 180.979 40.752 181.339 40.976C181.699 41.192 181.975 41.5 182.167 41.9C182.367 42.3 182.467 42.78 182.467 43.34V46.712C182.467 46.792 182.439 46.86 182.383 46.916C182.327 46.972 182.259 47 182.179 47H181.123C181.043 47 180.975 46.972 180.919 46.916C180.863 46.86 180.835 46.792 180.835 46.712V43.412C180.835 42.948 180.719 42.584 180.487 42.32C180.263 42.056 179.935 41.924 179.503 41.924C179.087 41.924 178.755 42.056 178.507 42.32C178.259 42.584 178.135 42.948 178.135 43.412V46.712C178.135 46.792 178.107 46.86 178.051 46.916C177.995 46.972 177.927 47 177.847 47H176.791ZM183.967 47C183.879 47 183.807 46.972 183.751 46.916C183.703 46.86 183.679 46.792 183.679 46.712V46.028C183.679 45.956 183.695 45.888 183.727 45.824C183.767 45.752 183.807 45.692 183.847 45.644L186.919 42.008H184.063C183.983 42.008 183.915 41.984 183.859 41.936C183.803 41.88 183.775 41.808 183.775 41.72V41.048C183.775 40.968 183.803 40.9 183.859 40.844C183.915 40.788 183.983 40.76 184.063 40.76H188.611C188.699 40.76 188.767 40.788 188.815 40.844C188.871 40.9 188.899 40.968 188.899 41.048V41.78C188.899 41.852 188.883 41.916 188.851 41.972C188.819 42.028 188.779 42.088 188.731 42.152L185.731 45.752H188.863C188.943 45.752 189.011 45.78 189.067 45.836C189.123 45.884 189.151 45.952 189.151 46.04V46.712C189.151 46.792 189.123 46.86 189.067 46.916C189.011 46.972 188.943 47 188.863 47H183.967ZM192.178 47.12C191.762 47.12 191.386 47.04 191.05 46.88C190.714 46.712 190.446 46.492 190.246 46.22C190.054 45.94 189.958 45.628 189.958 45.284C189.958 44.724 190.182 44.28 190.63 43.952C191.086 43.616 191.686 43.392 192.43 43.28L194.074 43.04V42.788C194.074 42.452 193.99 42.192 193.822 42.008C193.654 41.824 193.366 41.732 192.958 41.732C192.67 41.732 192.434 41.792 192.25 41.912C192.074 42.024 191.942 42.176 191.854 42.368C191.79 42.472 191.698 42.524 191.578 42.524H190.63C190.542 42.524 190.474 42.5 190.426 42.452C190.386 42.404 190.366 42.34 190.366 42.26C190.374 42.132 190.426 41.976 190.522 41.792C190.618 41.608 190.77 41.432 190.978 41.264C191.186 41.088 191.454 40.94 191.782 40.82C192.11 40.7 192.506 40.64 192.97 40.64C193.474 40.64 193.898 40.704 194.242 40.832C194.594 40.952 194.874 41.116 195.082 41.324C195.29 41.532 195.442 41.776 195.538 42.056C195.634 42.336 195.682 42.632 195.682 42.944V46.712C195.682 46.792 195.654 46.86 195.598 46.916C195.542 46.972 195.474 47 195.394 47H194.422C194.334 47 194.262 46.972 194.206 46.916C194.158 46.86 194.134 46.792 194.134 46.712V46.244C194.03 46.396 193.89 46.54 193.714 46.676C193.538 46.804 193.322 46.912 193.066 47C192.818 47.08 192.522 47.12 192.178 47.12ZM192.586 45.98C192.866 45.98 193.118 45.92 193.342 45.8C193.574 45.68 193.754 45.496 193.882 45.248C194.018 44.992 194.086 44.672 194.086 44.288V44.036L192.886 44.228C192.414 44.3 192.062 44.416 191.83 44.576C191.598 44.736 191.482 44.932 191.482 45.164C191.482 45.34 191.534 45.492 191.638 45.62C191.75 45.74 191.89 45.832 192.058 45.896C192.226 45.952 192.402 45.98 192.586 45.98Z" fill="black"/>
</svg>
